<svg width="13" height="13" viewBox="0 0 13 13" fill="none" xmlns="http://www.w3.org/2000/svg">
<path d="M11.5645 6.11561H12.4382V8.73659H11.5645V6.11561Z" fill="white"/>
<path opacity="0.1" d="M12.0014 3.0578V6.11561H11.5646V8.7366H12.0014V11.7944H2.39111V0.436819H9.3804L12.0014 3.0578Z" fill="white"/>
<path d="M12.4382 3.05781V6.11562H11.5645V3.49464H8.94354V0.873661H2.82791V11.3576H11.5645V8.73661H12.4382V11.7944L12.0014 12.2312H2.39108L1.95425 11.7944V0.43683L2.39108 0H9.38037L9.68965 0.127554L12.3106 2.74854L12.4382 3.05781Z" fill="white"/>
<path opacity="0.1" d="M5.08192 4.87027L4.55697 5.39697L6.14887 6.99344H-1.08724e-06V7.73736H6.14887L4.55697 9.33383L5.08192 9.86052L7.30627 7.62875V7.10205L5.08192 4.87027Z" fill="white"/>
<path d="M5.08192 4.12635L4.55697 4.65305L6.14887 6.24951H-8.10506e-07V6.99344H6.14887L4.55697 8.5899L5.08192 9.1166L7.30627 6.88483V6.35813L5.08192 4.12635Z" fill="white"/>
</svg>
