<svg width="13" height="12" viewBox="0 0 13 12" fill="none" xmlns="http://www.w3.org/2000/svg">
<path d="M9.33333 12L9.33333 8.25L10.2385 8.25L7.5 4.04883L4.76146 8.25L5.66667 8.25L5.66667 12L2 12L2 8.25L3.87917 8.25L6.8125 3.75L5.66667 3.75L5.66667 -3.2055e-07L9.33333 -1.60275e-07L9.33333 3.75L8.1875 3.75L11.1208 8.25L13 8.25L13 12L9.33333 12ZM4.93333 9L2.73333 9L2.73333 11.25L4.93333 11.25L4.93333 9ZM6.4 3L8.6 3L8.6 0.75L6.4 0.75L6.4 3ZM12.2667 9L10.0667 9L10.0667 11.25L12.2667 11.25L12.2667 9Z" fill="white"/>
<path opacity="0.1" d="M2.22777 8.85627L2.75352 8.32876L1.15918 6.72985L7.31748 6.72985L7.31748 5.98478L1.15918 5.98478L2.75352 4.38587L2.22777 3.85837L4.83046e-07 6.09356L3.90814e-07 6.62107L2.22777 8.85627Z" fill="white"/>
<path d="M2.22777 7.99791L2.75352 7.4704L1.15918 5.87149L7.31748 5.87149L7.31748 5.12643L1.15918 5.12643L2.75352 3.52752L2.22777 3.00001L4.83046e-07 5.23521L3.90814e-07 5.76271L2.22777 7.99791Z" fill="white"/>
</svg>
