<svg width="28" height="14" viewBox="0 0 28 14" fill="none" xmlns="http://www.w3.org/2000/svg">
<g opacity="0.75">
<path d="M24.5991 6.99998H25.4741V9.62498H24.5991V6.99998Z" fill="#C5C5C5"/>
<path opacity="0.1" d="M25.0366 3.9375V7H24.5991V9.625H25.0366V12.6875H15.4116V1.3125H22.4116L25.0366 3.9375Z" fill="#C5C5C5"/>
<path d="M25.4741 3.9375V7H24.5991V4.375H21.9741V1.75H15.8491V12.25H24.5991V9.625H25.4741V12.6875L25.0366 13.125H15.4116L14.9741 12.6875V1.3125L15.4116 0.875H22.4116L22.7214 1.00275L25.3464 3.62775L25.4741 3.9375Z" fill="#C5C5C5"/>
</g>
<path d="M7.6335 12.9848L7.6335 9.17049L8.57577 9.17049L5.72513 4.8973L2.87449 9.17049L3.81675 9.17049L3.81675 12.9848L2.08907e-06 12.9848L2.2558e-06 9.17049L1.95609 9.17049L5.00949 4.59334L3.81675 4.59334L3.81675 0.779052L7.63351 0.779053L7.6335 4.59334L6.44077 4.59334L9.49417 9.17049L11.4503 9.17049L11.4503 12.9848L7.6335 12.9848ZM3.0534 9.93335L0.763352 9.93335L0.763352 12.2219L3.0534 12.2219L3.0534 9.93335ZM4.5801 3.83049L6.87015 3.83049L6.87015 1.54191L4.5801 1.54191L4.5801 3.83049ZM10.6869 9.93335L8.39685 9.93335L8.39685 12.2219L10.6869 12.2219L10.6869 9.93335Z" fill="#C5C5C5"/>
<path opacity="0.1" d="M13.2278 10.8563L13.7535 10.3288L12.1592 8.72984L18.3175 8.72985L18.3175 7.98478L12.1592 7.98478L13.7535 6.38587L13.2278 5.85836L11 8.09356L11 8.62107L13.2278 10.8563Z" fill="#C5C5C5"/>
<path d="M13.2278 9.99791L13.7535 9.4704L12.1592 7.87149L18.3175 7.87149L18.3175 7.12642L12.1592 7.12642L13.7535 5.52751L13.2278 5L11 7.2352L11 7.76271L13.2278 9.99791Z" fill="#C5C5C5"/>
</svg>
